<svg version="1.1" id="Layer_1" xmlns="http://www.w3.org/2000/svg" xmlns:xlink="http://www.w3.org/1999/xlink" x="0px"
     y="0px" width="91.56px" height="107.67px" viewBox="0 0 91.56 107.67" enable-background="new 0 0 91.56 107.67"
     xml:space="preserve" class="dragon-logo svg">
<g>
	<path d="M23.559,30.591c-0.075-0.297,0.57-1.881,5.628-7.757c6.272-7.28,3.717-16.639,3.717-16.639
		c-0.737,3.732-4.206,13.922-12.984,22.381c-8.775,8.456-6.682,11.29-6.682,11.29C17.724,33.14,23.635,30.888,23.559,30.591z"></path>
    <path d="M69.369,37.176C69.541,37.203,69.534,37.199,69.369,37.176L69.369,37.176z"></path>
    <path d="M8.437,55.353c-0.127-0.576-0.06-1.433,0.306-2.658c0,0-0.443,0.459-1.081,1.259c-0.39,1.359-0.905,2.716-0.905,2.716
		S7.502,56.21,8.437,55.353z"></path>
    <path d="M1.053,78.981c1.741,1.452,4.618,3.238,10.673,2.213c0,0-8.038-3.836-3.443-4.802c4.593-0.966,8.13,2.971,8.13,2.971
		s-0.438-2.942-3.546-5.618c-3.106-2.678,0.745-3.665,1.591-2.83c0,0-0.885-0.848,0.283-2.597c0.759-1.142,1.249-1.69,2.856-1.576
		c0,0-1.52-2.661-0.216-3.308c1.304-0.654,2.226,0.06,2.226,0.06s-0.416-3.261,1.685-3.694c2.1-0.434,11.337-0.262,8.469,10.459
		c-0.486,1.806-1.775,1.295-1.775,1.295s1.937,1.819-0.483,2.231c0,0,0.861,3.357-5.445,2.971c0,0,2.061,1.474,4.337,1.312
		c0,0,1.576-0.825,2.228,0.903c0.656,1.729,2.341,2.559,3.67,2.005c0,0-1.201-2.639,2.063-2.634c0,0-1.029-2.786,1.016-4.257
		c0,0-1.4-2.589-0.571-4.275c0,0-5.917-7.288-2.73-14.351c0,0-0.861-2.089-0.045-4.608c0.714-2.192,4.971-3.432,2.64,2.789
		c-1.181,3.147,5.681,4.541,5.681,4.541c-1.055-3.307,3.131-2.17,3.131-2.17c2.973-2.762,2.631-6.148,2.631-6.148
		c0.024-0.162-5.465-6.793,1.552-10.257c8.254-4.072,20.345-2.616,21.71-2.429c-0.015-0.002-0.021-0.003-0.038-0.006
		c0,0-3.019-1.186-9.251-1.384c-4.672-0.144-6.351-0.705-5.48-2.625c2.706-5.96,13.912-5.946,13.912-5.946
		c-6.034-1.914-9.399-0.537-16.306,2.631c-6.902,3.173-8.027,3.614-9.88,3.504c-4.146-0.249,6.193-13.986,6.193-13.986
		s-8.322,8.68-11.692,10.704C26.67,36.173,24.013,40.3,24.013,40.3c1.408-5.036,8.323-8.589,8.323-8.589
		C43.62,24.822,57.424,10.234,52.595,0c0,0,1.649,7.68-10.896,18.684c-12.545,11.002-16.921,11.174-22.532,15.98
		C13.557,39.469,8.159,47.908,8.089,51.817c-0.009,0.524-0.197,1.331-0.428,2.137c0.638-0.8,1.081-1.259,1.081-1.259
		c-0.365,1.225-0.432,2.082-0.306,2.658c1.5-1.375,3.493-3.78,3.701-6.994c0.133-2.074,2.317-3.323,2.913-3.056
		c0,0,1.211,2.463-0.749,6.544c-1.641,3.426-5.36,5.796-5.865,3.505c-0.935,0.857-1.68,1.317-1.68,1.317s0.515-1.357,0.905-2.716
		c-1.682,2.109-4.766,6.662-5.003,11.989c-0.328,7.342-0.648,7.321-1.635,7.993C0.038,74.611-0.687,77.534,1.053,78.981z"></path>
    <path d="M53.031,97.693c20.064-28.411,12.137-47.905-3.434-56.85c0,0-3.985,1.473-3.157,5.488c0.712,3.455,2.933,2.886,6.317,5.427
		c7.886,5.918,8.744,26.489-2.888,40.713c-3.702,4.526-8.163,9.563-12.241,15.2h8.55C48.211,104.609,50.481,101.304,53.031,97.693z"></path>
    <path d="M41.895,60.518c0.033,2.622,2.213,6.59,2.213,6.59c1.288,0.514,2.59-0.981,2.59-0.981
		c-0.151-4.697,3.655-0.515,3.655-0.515c1.974-0.925,4.318-5.734,4.318-5.734c-2.175-8.077-6.73-9.013-6.73-9.013
		C49.989,53.921,41.895,60.518,41.895,60.518z"></path>
    <path d="M55.353,62.544c-1.375,5.297-10.84,6.145-10.84,6.145s0.473,0.617-0.379,3.461c-0.848,2.849-0.682,5.963-0.682,5.963
		c0.53,1.656,3.394,0.921,3.394,0.921c1.976-4.608,2.724,0.357,2.724,0.357c3.607-0.294,5.888-3.719,5.888-3.719
		C56.988,67.283,55.353,62.544,55.353,62.544z"></path>
    <path d="M44.735,94.208c7.244-4.594,9.806-14.721,9.806-14.721c-2.768,4.812-11.243,1.303-11.243,1.303
		c-0.096,0.442-0.534,1.607-3.312,4.74c-2.772,3.13-3.009,5.087-3.009,5.087c-0.148,0.669,2.327,0.877,2.327,0.877
		c3.497-2.371,2.062,1.892,2.062,1.892C41.298,94.351,44.735,94.208,44.735,94.208z"></path>
    <path d="M32.118,105.754c0,0,0.089-0.2,0.181-0.478C32.113,104.783,32.118,105.754,32.118,105.754z"></path>
    <path d="M32.389,105.578c0.279,1.085,3.242,0.749,3.242,0.749c0.9-2.232,7.749-10.828,7.749-10.828
		c-3.329,0.96-7.355-2.429-7.355-2.429c-5.153,2.899-7.387,9.786-7.387,9.786c-0.367,0.62,1.736,1.028,1.736,1.028
		c2.569-1.303,2.227,0.482,1.925,1.391C32.325,105.345,32.355,105.443,32.389,105.578z"></path>
    <path d="M27.566,105.237c0,0-0.743,1.003-1.696,2.432h5.544C29.449,107.198,27.43,106.423,27.566,105.237z"></path>
    <path d="M52.494,39.944c6.063,2.488,8.621,7.955,8.621,7.955c-0.586-12.206,25.686-2.073,25.686-2.073
		C64.313,33.337,52.494,39.944,52.494,39.944z"></path>
    <path d="M62.102,49.494c4.336,3.856,4.539,10.967,4.539,10.967c5.093-15.742,24.919,1.237,24.919,1.237
		C75.252,43.584,62.102,49.494,62.102,49.494z"></path>
    <path d="M84.043,84.183c-4.494-20.677-16.949-21.065-16.949-21.065c1.401,3.219-0.159,10.203-0.159,10.203
		C76.903,65.8,84.043,84.183,84.043,84.183z"></path>
    <path d="M71.694,94.16c1.35-15.475-4.91-18.723-4.91-18.723c0.672,3.526-2.232,8.428-2.232,8.428
		C69.65,83.019,71.694,94.16,71.694,94.16z"></path>
    <path d="M63.535,86.203c-0.203,2.516-3.839,7.106-3.839,7.106c6.544,0.286,2.137,12.848,2.137,12.848
		C68.558,96.35,63.535,86.203,63.535,86.203z"></path>
</g>
</svg>